<svg width="21" height="21" viewBox="0 0 21 21" fill="none" xmlns="http://www.w3.org/2000/svg">
<path d="M15.6516 2.09998H5.34844C3.55687 2.09998 2.1 3.55628 2.1 5.34715V8.77799V15.6528C2.1 17.4437 3.55687 18.9 5.34844 18.9H15.6516C17.4431 18.9 18.9 17.4437 18.9 15.6528V8.77143V5.34058C18.8934 3.55628 17.4366 2.09998 15.6516 2.09998ZM16.5834 4.03516H16.9575V4.40251V6.88217L14.1159 6.88873L14.1094 4.04172L16.5834 4.03516ZM8.09812 8.77143C8.63625 8.03016 9.50906 7.53816 10.4934 7.53816C11.4778 7.53816 12.3506 8.0236 12.8887 8.77143C13.2431 9.25687 13.4466 9.85382 13.4466 10.4967C13.4466 12.1236 12.1209 13.4552 10.4869 13.4552C8.85281 13.4552 7.54031 12.1236 7.54031 10.4967C7.54031 9.85382 7.75031 9.25687 8.09812 8.77143ZM17.2594 15.6462C17.2594 16.5318 16.5375 17.2534 15.6516 17.2534H5.34844C4.4625 17.2534 3.74062 16.5318 3.74062 15.6462V8.77143H6.2475C6.03094 9.30279 5.90625 9.88662 5.90625 10.4967C5.90625 13.0288 7.96687 15.0887 10.5 15.0887C13.0331 15.0887 15.0937 13.0288 15.0937 10.4967C15.0937 9.88662 14.9691 9.30279 14.7525 8.77143H17.2594V15.6462Z" fill="#7572D5"/>
</svg>
